<svg version="1.1" xmlns="http://www.w3.org/2000/svg" viewBox="-2377.6790619360004 -1605.120051574707 9795.535468338589 2411.520071411133"><desc>Created with Snap</desc><defs></defs><g><rect x="-2377.6790619360004" y="-1605.120051574707" width="9795.535468338589" height="2411.520071411133" fill="#6daedb" style=""></rect><g transform="matrix(19.9902,0,0,19.9902,-2170.4301,-1397.8711)"><g><path d="M78.4,66.5c-5.5,4.8-9.9,15.2-9.9,15.2s-6.9-11.4-12.9-15.3c-9.5-6.1-13.6-6.2-13.6-6.2V65c0,0,7.8,1.2,11.7,4.6   c8.2,7.1,14.8,18.5,14.8,18.5S74.4,75,80.1,70.5C88.1,64.3,95,65,95,65v-4.8C95,60.1,85.1,60.7,78.4,66.5z" fill="#173753" style=""></path><path d="M42,80c-6.4-3.6-17.8-4.3-17.8-4.3s8.7-10.1,10.5-17C37.5,47.9,36.2,44,36.2,44l-4.6,1.6c0,0,1.3,7.7-0.6,12.4   c-4.1,9.9-13,19.8-13,19.8s14.6,1.3,20.7,5.1c8.6,5.4,10.2,12,10.2,12l4.6-1.6C53.5,93.4,49.7,84.4,42,80z" fill="#173753" style=""></path><path d="M35.3,36.8c11.3-0.9,14.6-3.4,14.6-3.4l-3-3.8c0,0-6.9,3.7-12.1,3.4c-10.9-0.6-23.3-5.6-23.3-5.6s3.5,14,1.8,20.9   C10.9,58.2,5,61.8,5,61.8l3,3.8c0,0,7.5-6.5,9.1-15.1c1.3-7.1-1.7-18-1.7-18S28,37.4,35.3,36.8z" fill="#173753" style=""></path><path d="M37.4,17.8c7.3-1.1,16.7-7.4,16.7-7.4s-0.6,13.2,2.4,19.8c4.6,10.2,8,12.5,8,12.5l2.7-4c0,0-5.9-5.2-7.3-10.2   C56.9,18.2,57.7,5,57.7,5s-12.3,7.8-19.5,8.5c-10.2,1-15.6-3.3-15.6-3.3l-2.7,4.1C19.9,14.2,28.6,19.1,37.4,17.8z" fill="#173753" style=""></path><path d="M65,60.5c0,0,3.1-7.2,7.4-10.1c9-6.1,21.9-9.7,21.9-9.7s-11.5-8.9-14.5-15.4c-4.2-9.1-1.9-15.6-1.9-15.6l-4.8-1.2   c0,0-1.9,9.6,2.2,17.4c3.4,6.4,12.5,13.2,12.5,13.2S75,42.9,69.6,47.8c-8.3,7.6-9.4,11.5-9.4,11.5L65,60.5z" fill="#173753" style=""></path></g><desc>Created with Snap</desc><defs></defs></g><g><g transform="matrix(1.024,0,0,-1.024,0,0)"><path d="M805 609L805 161Q805 123 808 99Q812 76 823 63Q835 51 855 46Q876 41 910 40L910 0L543 0L543 40Q580 41 602 46Q625 51 637 63Q650 75 654 97Q658 119 658 154L658 363L287 363L287 161Q287 123 291 99Q295 76 307 63Q319 51 341 46Q364 41 401 40L401 0L35 0L35 40Q69 41 89 46Q110 51 121 63Q132 75 136 97Q140 119 140 154L140 616Q140 651 136 672Q133 694 123 706Q113 719 94 723Q76 728 46 730L46 770L391 770L391 730Q357 729 336 724Q316 719 305 706Q294 693 290 670Q287 647 287 609L287 425L658 425L658 616Q658 651 654 672Q650 694 639 706Q628 719 607 723Q587 728 553 730L553 770L899 770L899 730Q869 729 850 724Q832 719 822 706Q812 693 808 670Q805 647 805 609ZM1232 680L1232 426Q1296 426 1335 430Q1374 434 1395 446Q1417 459 1426 483Q1435 507 1440 548L1477 548L1477 255L1440 255Q1434 295 1424 319Q1414 343 1392 355Q1370 368 1332 371Q1295 375 1232 375L1232 169Q1232 137 1240 115Q1249 93 1269 79Q1289 66 1322 60Q1355 55 1403 55Q1460 55 1499 63Q1539 71 1565 91Q1591 111 1607 144Q1623 178 1634 229L1674 229L1658 0L980 0L980 40Q1013 41 1034 46Q1055 51 1066 63Q1077 75 1081 97Q1085 119 1085 154L1085 616Q1085 651 1081 672Q1078 694 1068 706Q1058 719 1039 723Q1021 728 991 730L991 770L1623 770L1630 574L1587 574Q1581 616 1568 643Q1555 671 1532 687Q1509 704 1472 710Q1436 717 1383 717L1270 717Q1244 717 1238 710Q1232 704 1232 680ZM2233 173L2210 233L1927 233Q1880 127 1880 86Q1880 56 1902 48Q1925 40 1970 40L1970 0L1696 0L1696 40Q1720 43 1737 48Q1755 53 1768 62Q1782 71 1792 85Q1802 100 1811 121L2074 780L2148 780L2387 196Q2408 145 2422 116Q2437 87 2453 71Q2470 56 2491 50Q2513 44 2547 41L2547 0L2169 0L2169 41Q2217 43 2238 51Q2259 59 2259 83Q2259 97 2252 119Q2245 141 2233 173ZM2069 596L1950 293L2188 293L2073 596L2069 596ZM3258 227L3242 0L2553 0L2553 40Q2586 41 2607 46Q2628 51 2639 63Q2650 75 2654 97Q2658 119 2658 154L2658 616Q2658 651 2654 672Q2651 694 2641 706Q2631 719 2612 723Q2594 728 2564 730L2564 770L2909 770L2909 730Q2875 729 2854 724Q2834 719 2823 706Q2812 693 2808 670Q2805 647 2805 609L2805 190Q2805 148 2813 121Q2822 95 2843 80Q2864 66 2899 60Q2934 55 2986 55Q3044 55 3083 62Q3122 69 3148 88Q3175 108 3191 141Q3207 174 3218 227L3258 227ZM4078 770L4088 550L4045 550Q4042 599 4030 631Q4019 664 3998 683Q3977 703 3947 710Q3917 718 3877 718Q3838 718 3814 716Q3791 715 3778 711Q3766 708 3762 702Q3758 696 3758 687L3758 163Q3758 131 3762 108Q3767 85 3781 70Q3795 56 3822 48Q3849 41 3893 40L3893 0L3474 0L3474 40Q3519 41 3546 48Q3573 56 3587 70Q3602 85 3606 108Q3611 131 3611 163L3611 687Q3611 696 3607 702Q3604 708 3593 711Q3582 715 3561 716Q3541 718 3508 718Q3472 718 3439 714Q3406 711 3381 694Q3356 678 3340 644Q3325 611 3324 550L3285 550L3295 770L4078 770ZM4905 609L4905 161Q4905 123 4908 99Q4912 76 4923 63Q4935 51 4955 46Q4976 41 5010 40L5010 0L4643 0L4643 40Q4680 41 4702 46Q4725 51 4737 63Q4750 75 4754 97Q4758 119 4758 154L4758 363L4387 363L4387 161Q4387 123 4391 99Q4395 76 4407 63Q4419 51 4441 46Q4464 41 4501 40L4501 0L4135 0L4135 40Q4169 41 4189 46Q4210 51 4221 63Q4232 75 4236 97Q4240 119 4240 154L4240 616Q4240 651 4236 672Q4233 694 4223 706Q4213 719 4194 723Q4176 728 4146 730L4146 770L4491 770L4491 730Q4457 729 4436 724Q4416 719 4405 706Q4394 693 4390 670Q4387 647 4387 609L4387 425L4758 425L4758 616Q4758 651 4754 672Q4750 694 4739 706Q4728 719 4707 723Q4687 728 4653 730L4653 770L4999 770L4999 730Q4969 729 4950 724Q4932 719 4922 706Q4912 693 4908 670Q4905 647 4905 609ZM5438 40L5438 0L5081 0L5081 40Q5115 41 5135 46Q5156 52 5167 67Q5178 82 5182 109Q5186 137 5186 184L5186 586Q5186 628 5182 655Q5179 683 5169 699Q5159 715 5140 721Q5122 728 5091 730L5091 770L5428 770L5428 730Q5397 728 5378 721Q5360 715 5350 699Q5340 683 5336 655Q5333 628 5333 586L5333 184Q5333 137 5336 109Q5340 82 5351 67Q5363 52 5383 46Q5404 41 5438 40ZM5761 355L5761 161Q5761 123 5766 99Q5771 76 5786 63Q5802 51 5830 46Q5859 41 5907 40L5907 0L5509 0L5509 40Q5542 41 5563 46Q5584 51 5595 63Q5606 75 5610 97Q5614 119 5614 154L5614 616Q5614 651 5610 672Q5607 694 5597 706Q5587 719 5568 723Q5550 728 5520 730L5520 770L6132 770L6144 559L6102 559Q6096 602 6084 631Q6073 661 6052 679Q6031 698 5998 706Q5965 714 5917 714L5779 714Q5761 714 5761 697L5761 408Q5822 408 5860 413Q5899 418 5922 432Q5945 447 5955 472Q5965 497 5969 538L6006 538L6006 225L5969 225Q5963 267 5952 292Q5941 318 5918 331Q5896 345 5858 350Q5820 355 5761 355ZM6471 276L6264 644Q6249 670 6236 687Q6224 704 6211 713Q6198 723 6183 726Q6168 730 6149 730L6149 770L6485 770L6485 730Q6443 730 6426 722Q6409 714 6409 698Q6409 688 6415 674Q6421 660 6434 636L6577 363L6581 363L6707 573Q6740 629 6753 656Q6766 684 6766 700Q6766 717 6750 723Q6735 730 6693 730L6693 770L6944 770L6944 730Q6922 730 6904 723Q6886 716 6866 695Q6847 675 6822 638Q6798 602 6764 543L6618 293L6618 191Q6618 141 6622 111Q6627 81 6638 65Q6650 50 6670 45Q6690 40 6722 40L6722 0L6366 0L6366 40Q6397 40 6417 45Q6438 50 6450 65Q6462 80 6466 108Q6471 137 6471 184L6471 276Z" fill="#ffffff" style=""></path></g></g></g></svg>